<svg width="108" height="42" viewBox="0 0 108 42" fill="none" xmlns="http://www.w3.org/2000/svg">
<circle cx="20.5" cy="21.5" r="20.5" fill="white"/>
<path d="M56.4716 18.5625C56.4186 18.0663 56.1951 17.6799 55.8011 17.4034C55.411 17.1269 54.9034 16.9886 54.2784 16.9886C53.839 16.9886 53.4621 17.0549 53.1477 17.1875C52.8333 17.3201 52.5928 17.5 52.4261 17.7273C52.2595 17.9545 52.1742 18.214 52.1705 18.5057C52.1705 18.7481 52.2254 18.9583 52.3352 19.1364C52.4489 19.3144 52.6023 19.4659 52.7955 19.5909C52.9886 19.7121 53.2027 19.8144 53.4375 19.8977C53.6723 19.9811 53.9091 20.0511 54.1477 20.108L55.2386 20.3807C55.678 20.483 56.1004 20.6212 56.5057 20.7955C56.9148 20.9697 57.2803 21.1894 57.6023 21.4545C57.928 21.7197 58.1856 22.0398 58.375 22.4148C58.5644 22.7898 58.6591 23.2292 58.6591 23.733C58.6591 24.4148 58.4848 25.0152 58.1364 25.5341C57.7879 26.0492 57.2841 26.4527 56.625 26.7443C55.9697 27.0322 55.1761 27.1761 54.2443 27.1761C53.339 27.1761 52.553 27.036 51.8864 26.7557C51.2235 26.4754 50.7045 26.0663 50.3295 25.5284C49.9583 24.9905 49.7576 24.3352 49.7273 23.5625H51.8011C51.8314 23.9678 51.9564 24.3049 52.1761 24.5739C52.3958 24.8428 52.6818 25.0436 53.0341 25.1761C53.3902 25.3087 53.7879 25.375 54.2273 25.375C54.6856 25.375 55.0871 25.3068 55.4318 25.1705C55.7803 25.0303 56.053 24.8371 56.25 24.5909C56.447 24.3409 56.5473 24.0492 56.5511 23.7159C56.5473 23.4129 56.4583 23.1629 56.2841 22.9659C56.1098 22.7652 55.8655 22.5985 55.5511 22.4659C55.2405 22.3295 54.8769 22.2083 54.4602 22.1023L53.1364 21.7614C52.178 21.5152 51.4205 21.142 50.8636 20.642C50.3106 20.1383 50.0341 19.4697 50.0341 18.6364C50.0341 17.9508 50.2197 17.3504 50.5909 16.8352C50.9659 16.3201 51.4754 15.9205 52.1193 15.6364C52.7633 15.3485 53.4924 15.2045 54.3068 15.2045C55.1326 15.2045 55.8561 15.3485 56.4773 15.6364C57.1023 15.9205 57.5928 16.3163 57.9489 16.8239C58.3049 17.3277 58.4886 17.9072 58.5 18.5625H56.4716ZM61.8452 27H59.5952L63.6918 15.3636H66.294L70.3963 27H68.1463L65.0384 17.75H64.9474L61.8452 27ZM61.919 22.4375H68.0554V24.1307H61.919V22.4375ZM71.929 27V15.3636H79.3835V17.1307H74.0369V20.2898H78.8722V22.0568H74.0369V27H71.929ZM81.3452 27H79.0952L83.1918 15.3636H85.794L89.8963 27H87.6463L84.5384 17.75H84.4474L81.3452 27ZM81.419 22.4375H87.5554V24.1307H81.419V22.4375ZM91.429 27V15.3636H95.7926C96.6866 15.3636 97.4366 15.5189 98.0426 15.8295C98.6525 16.1402 99.1127 16.5758 99.4233 17.1364C99.7377 17.6932 99.8949 18.3428 99.8949 19.0852C99.8949 19.8314 99.7358 20.4792 99.4176 21.0284C99.1032 21.5739 98.6392 21.9962 98.0256 22.2955C97.4119 22.5909 96.6581 22.7386 95.7642 22.7386H92.6562V20.9886H95.4801C96.0028 20.9886 96.4309 20.9167 96.7642 20.7727C97.0975 20.625 97.3438 20.411 97.5028 20.1307C97.6657 19.8466 97.7472 19.4981 97.7472 19.0852C97.7472 18.6723 97.6657 18.3201 97.5028 18.0284C97.34 17.733 97.0919 17.5095 96.7585 17.358C96.4252 17.2027 95.9953 17.125 95.4688 17.125H93.5369V27H91.429ZM97.4403 21.7273L100.321 27H97.9688L95.1392 21.7273H97.4403ZM103.943 15.3636V27H101.835V15.3636H103.943Z" fill="white"/>
</svg>
